Coordinates
version=1
nRows=29
nColumns=22
inDegrees=yes

Units are S.I. units (second, meters, Newtons, ...)
If the header above contains a line with 'inDegrees', this indicates whether rotational values are in degrees (yes) or radians (no).

endheader
time	pelvis_tilt	pelvis_list	pelvis_rotation	pelvis_tx	pelvis_ty	pelvis_tz	hip_flexion_r	hip_adduction_r	hip_rotation_r	knee_angle_r	ankle_angle_r	subtalar_angle_r	hip_flexion_l	hip_adduction_l	hip_rotation_l	knee_angle_l	ankle_angle_l	subtalar_angle_l	lumbar_extension	lumbar_bending	lumbar_rotation
      1.05000000	    -13.19219111	      6.12054160	    -27.36532005	     -1.15374079	      0.95597304	     -0.48315481	     31.32108502	     -0.12151820	      1.14318402	    -41.80049820	     24.94809725	     -2.83762941	     22.04928806	      2.67893810	     -4.22355269	    -27.03054067	     28.80056007	     -4.77085898	     -1.73753878	     -0.03725420	      6.66325532
      1.06000000	    -12.98887570	      6.37628557	    -27.60751367	     -1.15099761	      0.95503085	     -0.48214847	     32.32990970	     -0.28217756	      1.41297376	    -43.76343673	     25.03000327	     -3.03944808	     21.82130218	      3.04438299	     -4.26185300	    -27.14195281	     29.29540671	     -4.95322403	     -2.09801392	     -0.33016645	      6.53420479
      1.07000000	    -12.77953042	      6.62017964	    -27.84151605	     -1.14807110	      0.95416670	     -0.48104104	     33.33846592	     -0.41373982	      1.70557360	    -45.65055688	     25.06412658	     -3.25888091	     21.53771982	      3.41594658	     -4.25414696	    -27.18949255	     29.80667045	     -5.09441920	     -2.47179665	     -0.60982552	      6.36523410
      1.08000000	    -12.60050316	      6.88021462	    -28.05910711	     -1.14499809	      0.95328391	     -0.47984517	     34.40468256	     -0.53601651	      1.98354490	    -47.45310661	     25.02785481	     -3.55209980	     21.27301979	      3.78297867	     -4.29799965	    -27.21992284	     30.26172641	     -5.28590354	     -2.80695683	     -0.88731326	      6.14254137
      1.09000000	    -12.41411122	      7.10634046	    -28.25399343	     -1.14170705	      0.95251582	     -0.47856641	     35.43234457	     -0.62408552	      2.25900422	    -49.10115412	     24.96561329	     -3.78034599	     20.92678098	      4.14702163	     -4.25260126	    -27.16399586	     30.76624250	     -5.37338723	     -3.17205846	     -1.12808718	      5.89020687
      1.10000000	    -12.26334262	      7.34634881	    -28.43163488	     -1.13826670	      0.95172938	     -0.47719393	     36.50526220	     -0.70350917	      2.51503970	    -50.60037910	     24.86233876	     -4.03411221	     20.59598285	      4.50023225	     -4.25101234	    -27.07966812	     31.22431575	     -5.46626378	     -3.49605241	     -1.36140406	      5.58653661
      1.11000000	    -12.14941077	      7.58084161	    -28.58227477	     -1.13464183	      0.95093475	     -0.47573060	     37.59995309	     -0.76363068	      2.73888573	    -51.91770857	     24.73266420	     -4.29014899	     20.26537484	      4.83232813	     -4.25602433	    -26.96080120	     31.66898065	     -5.54882328	     -3.78653288	     -1.56487841	      5.23125890
      1.12000000	    -12.06021727	      7.80440495	    -28.71651478	     -1.13085027	      0.95015274	     -0.47418271	     38.70108020	     -0.80572315	      2.93461725	    -53.03703073	     24.59156964	     -4.50041004	     19.91514983	      5.14818362	     -4.23516226	    -26.79275706	     32.11468030	     -5.59512565	     -4.06603237	     -1.73861462	      4.85744428
      1.13000000	    -11.97741515	      8.01741774	    -28.84423480	     -1.12686739	      0.94939221	     -0.47253669	     39.79087906	     -0.83892283	      3.10526635	    -53.95260068	     24.45386867	     -4.63267108	     19.52334035	      5.45673105	     -4.19126677	    -26.57112704	     32.55069974	     -5.59840363	     -4.35159408	     -1.89286510	      4.47144514
      1.14000000	    -11.92376860	      8.23789746	    -28.96057174	     -1.12271466	      0.94857355	     -0.47080175	     40.90805544	     -0.87451429	      3.24029381	    -54.67580877	     24.32301186	     -4.73531066	     19.13752410	      5.75070378	     -4.18595913	    -26.32224204	     32.95737363	     -5.59467932	     -4.60976895	     -2.03259421	      4.06216357
      1.15000000	    -11.88575850	      8.45898031	    -29.07287080	     -1.11839653	      0.94769652	     -0.46897526	     42.03830753	     -0.91097766	      3.34238533	    -55.21280413	     24.20212275	     -4.79723843	     18.74432049	      6.03443306	     -4.19275940	    -26.05163845	     33.33941646	     -5.58343768	     -4.86226006	     -2.15885788	      3.65100017
      1.16000000	    -11.85765579	      8.68737960	    -29.19277971	     -1.11391766	      0.94672844	     -0.46705875	     43.18657600	     -0.95303975	      3.41892540	    -55.58029563	     24.09170764	     -4.81733190	     18.35225834	      6.31559746	     -4.21801802	    -25.77806008	     33.69211662	     -5.57170679	     -5.11070053	     -2.27875103	      3.24017081
      1.17000000	    -11.82986979	      8.90963506	    -29.32058297	     -1.10927258	      0.94567329	     -0.46503477	     44.33517729	     -0.99183570	      3.46583157	    -55.78947234	     23.98486953	     -4.79650255	     17.94264555	      6.58666244	     -4.25683292	    -25.49476455	     34.02584451	     -5.56151428	     -5.37433735	     -2.38723034	      2.84202586
      1.18000000	    -11.79967714	      9.13689846	    -29.46255349	     -1.10445521	      0.94448508	     -0.46292458	     45.49518697	     -1.03788448	      3.48842544	    -55.86565708	     23.87779048	     -4.73964949	     17.53147871	      6.85916057	     -4.31775246	    -25.22524016	     34.33428971	     -5.55836004	     -5.64818310	     -2.49119154	      2.45842719
      1.19000000	    -11.76810472	      9.37423824	    -29.61702125	     -1.09948521	      0.94312703	     -0.46070972	     46.67393578	     -1.08928605	      3.49253304	    -55.83180152	     23.76623542	     -4.63747980	     17.13228703	      7.13441276	     -4.40703648	    -24.98593885	     34.61599122	     -5.56750426	     -5.92866704	     -2.59998525	      2.08056737
      1.20000000	    -11.72436833	      9.60799459	    -29.78348811	     -1.09431239	      0.94160978	     -0.45839566	     47.84966450	     -1.15100499	      3.45625135	    -55.70173284	     23.63478162	     -4.50698551	     16.72331551	      7.40875697	     -4.51771274	    -24.77098094	     34.89016342	     -5.58154035	     -6.23083308	     -2.70257733	      1.72856289
      1.21000000	    -11.67006371	      9.84324946	    -29.95818992	     -1.08893941	      0.93990105	     -0.45597226	     49.02830114	     -1.22250068	      3.38830927	    -55.49801235	     23.48307326	     -4.34330879	     16.31504850	      7.68406468	     -4.65980474	    -24.59390343	     35.14992347	     -5.60015374	     -6.54817610	     -2.80427776	      1.38921628
      1.22000000	    -11.60900602	     10.08805546	    -30.13583738	     -1.08335933	      0.93796565	     -0.45344184	     50.21688215	     -1.31056508	      3.29651243	    -55.24034735	     23.31957751	     -4.09733666	     15.92795970	      7.96234145	     -4.84986609	    -24.48056494	     35.39184909	     -5.63078715	     -6.86964050	     -2.91018945	      1.03939392
      1.23000000	    -11.52131193	     10.32417827	    -30.31790693	     -1.07749424	      0.93586579	     -0.45077911	     51.37647797	     -1.42063982	      3.15751732	    -54.93468421	     23.10262954	     -3.87355172	     15.49884685	      8.24857659	     -5.04029341	    -24.37140977	     35.63550662	     -5.64601330	     -7.21747241	     -3.01492844	      0.72802256
      1.24000000	    -11.42025518	     10.56392239	    -30.49020941	     -1.07136236	      0.93355140	     -0.44799092	     52.52592377	     -1.55659080	      2.99106969	    -54.60214835	     22.86003128	     -3.60004908	     15.06770592	      8.53973823	     -5.26806030	    -24.30772723	     35.86635563	     -5.66300709	     -7.57088831	     -3.12264341	      0.40376181
      1.25000000	    -11.31106315	     10.81204825	    -30.63952293	     -1.06494614	      0.93102394	     -0.44506116	     53.66253446	     -1.72686384	      2.80072876	    -54.25026285	     22.62434577	     -3.20471922	     14.63866717	      8.83724109	     -5.53326337	    -24.28843367	     36.06311124	     -5.68685023	     -7.91890464	     -3.24037187	      0.04897204
      1.26000000	    -11.17577298	     11.03220522	    -30.76614528	     -1.05817415	      0.92837352	     -0.44199412	     54.73989479	     -1.92696581	      2.56082084	    -53.88268996	     22.28947599	     -2.92521652	     14.13602129	      9.13574808	     -5.74849985	    -24.24672990	     36.27589732	     -5.69508613	     -8.29534671	     -3.33632267	     -0.28268635
      1.27000000	    -11.02704682	     11.27191282	    -30.84673395	     -1.05105256	      0.92554383	     -0.43882490	     55.79208351	     -2.19099959	      2.31840174	    -53.51436321	     21.94599595	     -2.55082280	     13.61536106	      9.46702399	     -5.96041500	    -24.21715209	     36.45273005	     -5.70688594	     -8.65914990	     -3.44850624	     -0.66410047
      1.28000000	    -10.87139934	     11.49958848	    -30.86982894	     -1.04357932	      0.92258718	     -0.43553167	     56.79645750	     -2.50282878	      2.05812364	    -53.15294346	     21.57593279	     -2.11834833	     13.05125183	      9.80303805	     -6.11928145	    -24.18073866	     36.60964371	     -5.72178939	     -9.02554399	     -3.54687545	     -1.08394357
      1.29000000	    -10.70590229	     11.71379092	    -30.82258074	     -1.03575225	      0.91952442	     -0.43212127	     57.74193484	     -2.86899866	      1.79555723	    -52.80889047	     21.19830962	     -1.56329494	     12.44471174	     10.14141901	     -6.23537155	    -24.15183653	     36.76329094	     -5.75726784	     -9.39755028	     -3.63132316	     -1.56799851
      1.30000000	    -10.53977316	     11.90023556	    -30.70866473	     -1.02753744	      0.91642816	     -0.42859379	     58.61092564	     -3.27458229	      1.52443904	    -52.47139728	     20.65035685	     -1.21911059	     11.75057356	     10.48218769	     -6.21077025	    -24.04864863	     36.92596852	     -5.75020169	     -9.77091056	     -3.67997433	     -2.05466662
      1.31000000	    -10.36559569	     12.07292675	    -30.50368225	     -1.01897736	      0.91327883	     -0.42497286	     59.40796799	     -3.74327933	      1.28508112	    -52.17850318	     20.11595208	     -0.53857680	     11.00427933	     10.82558413	     -6.10401383	    -23.94111393	     37.10963535	     -5.79761644	    -10.15580229	     -3.71263868	     -2.62532378
      1.32000000	    -10.20166529	     12.21430687	    -30.20771320	     -1.01003747	      0.91013089	     -0.42122827	     60.12010655	     -4.25231282	      1.05358325	    -51.92668996	     19.43647988	     -0.15592017	     10.17395718	     11.15485000	     -5.83745360	    -23.76702793	     37.26442217	     -5.75809438	    -10.53603008	     -3.69839389	     -3.25433140
      1.33000000	    -10.04043188	     12.31465671	    -29.83404219	     -1.00076801	      0.90699864	     -0.41733226	     60.72966883	     -4.78432850	      0.85986964	    -51.73331457	     18.71545594	      0.50977388	      9.26976395	     11.44511959	     -5.47687060	    -23.56678372	     37.48501398	     -5.75296855	    -10.92914807	     -3.63963796	     -3.92655519
